<?xml version="1.0" encoding="UTF-8"?>
<svg id="Layer_1" data-name="Layer 1" xmlns="http://www.w3.org/2000/svg" viewBox="0 0 961.13 959.76">
  <defs>
    <style>
      .cls-1 {
        opacity: .5;
      }

      .cls-1, .cls-2, .cls-3 {
        fill: #0246cc;
      }

      .cls-3 {
        opacity: .8;
      }
    </style>
  </defs>
  <path class="cls-1" d="M959.35,664.13v166.42c0,.82-4.07,9.22-5.01,11.01-20.19,38.43-114.05,69.09-154.79,80.15-194.92,52.89-500.76,53.43-691.41-15.96-24.64-8.97-108.13-44.6-108.13-75.19v-166.42l47.42,24.67c156.29,63.76,330.48,76.08,498.04,69.59,118.2-4.58,256.76-20.23,365.25-69.03,16.68-7.5,32.22-17.27,48.64-25.23Z"/>
  <path class="cls-3" d="M961.13,363.33v189.56c0,28.69-86.09,65.5-109.43,73.9-198.12,71.23-542.33,71.24-740.49,0-29.88-10.74-82.43-33.12-101.3-58.89-1.41-1.93-8.13-13.79-8.13-15.01v-189.56c81.52,59.43,185.5,87.6,284.44,102.68,125.62,19.15,264.84,19.01,390.47,0,98.73-14.94,203.5-42.94,284.44-102.68Z"/>
  <path class="cls-2" d="M774.24,212.06l-111.54-44.21c-41.73-13.8-32.55-86.14,16.89-72.06,58.71,28.06,124.61,48.5,182.51,77.35,18.67,9.3,30.09,18.46,29.76,41.56-.32,23-12.56,31.28-30.98,40.37-58.45,28.85-124.82,50.02-184.45,77.19-30.91,5.87-42.85-16.84-39.09-44.42,1.2-8.79,9.63-19.25,16.74-24.2,26.1-18.21,84.3-32.01,115.76-47.99,1.68-.85,4.22-1.02,4.4-3.59Z"/>
  <path class="cls-2" d="M521.04.67c23.18-4.01,41.53,10.37,44.56,33.05l-97.85,371.08c-17.01,36.28-66.53,27.08-70.36-12.56L495.71,21.61c4.14-9.65,14.77-19.11,25.33-20.94Z"/>
  <path class="cls-2" d="M188.67,212.06c.18,2.57,2.72,2.74,4.4,3.59,33.89,17.22,76.39,27.4,109.89,44.95,13.2,6.92,21.41,14.95,22.83,30.57,2.49,27.48-9.68,46.37-39.31,41.09-60.58-28.04-128.65-49.27-188-78.98-17.71-8.87-27.37-19.13-27.27-40.35.11-22.66,12.58-31.36,30.82-40.37,57.75-28.51,122.78-49.1,181.29-76.78,20.69-6.39,40.46,3.81,42.47,26.29,3.55,39.68-18.37,42.51-48.19,55.19-29.22,12.42-59.01,24.14-88.93,34.78Z"/>
</svg>